<svg width="48" height="48" viewBox="0 0 48 48" fill="none" xmlns="http://www.w3.org/2000/svg">
<path d="M12 31C14.5901 27.3626 18.7764 25 23.5 25C28.2236 25 32.4099 27.3626 35 31" stroke="#152C5B" stroke-width="3" stroke-linecap="round"/>
<path d="M6 23C9.94144 17.5439 16.3119 14 23.5 14C30.6881 14 37.0586 17.5439 41 23" stroke="#152C5B" stroke-width="3" stroke-linecap="round"/>
<path d="M3 14C7.72973 7.93762 15.3743 4 24 4C32.6257 4 40.2703 7.93762 45 14" stroke="#152C5B" stroke-width="3" stroke-linecap="round"/>
<path d="M29.5 39.5C29.5 42.1587 27.1442 44.5 24 44.5C20.8558 44.5 18.5 42.1587 18.5 39.5C18.5 36.8413 20.8558 34.5 24 34.5C27.1442 34.5 29.5 36.8413 29.5 39.5Z" stroke="#FF498B" stroke-width="3"/>
</svg>
