<svg width="48" height="48" viewBox="0 0 48 48" fill="none" xmlns="http://www.w3.org/2000/svg">
<path d="M28.5 39.5C28.5 41.0703 27.3621 42.7916 24.8671 44.2054C22.4169 45.5938 18.9315 46.5 15 46.5C11.0685 46.5 7.58305 45.5938 5.13292 44.2054C2.63794 42.7916 1.5 41.0703 1.5 39.5C1.5 37.9297 2.63794 36.2084 5.13292 34.7946C7.58305 33.4062 11.0685 32.5 15 32.5C18.9315 32.5 22.4169 33.4062 24.8671 34.7946C27.3621 36.2084 28.5 37.9297 28.5 39.5Z" stroke="#152C5B" stroke-width="3"/>
<path d="M26.5 13.3333C26.5 16.7588 25.1105 23.2267 22.8042 28.8598C21.6557 31.665 20.3207 34.1599 18.8935 35.9261C17.4279 37.7398 16.103 38.5 15 38.5C13.897 38.5 12.5721 37.7398 11.1065 35.9261C9.67933 34.1599 8.34425 31.665 7.19578 28.8598C4.88954 23.2267 3.5 16.7588 3.5 13.3333C3.5 6.76194 8.6843 1.5 15 1.5C21.3157 1.5 26.5 6.76194 26.5 13.3333Z" fill="white" stroke="#152C5B" stroke-width="3"/>
<circle cx="15" cy="14" r="4.5" stroke="#FF498B" stroke-width="3"/>
</svg>
