<svg width="48" height="48" viewBox="0 0 48 48" fill="none" xmlns="http://www.w3.org/2000/svg">
<circle cx="24" cy="26" r="6.5" stroke="#FF498B" stroke-width="3"/>
<mask id="path-2-inside-1" fill="white">
<path fill-rule="evenodd" clip-rule="evenodd" d="M18.3016 6C17.5103 6 16.7934 6.46659 16.4729 7.19015L14.5 11.6452H8C3.58172 11.6452 0 15.2269 0 19.6452V33C0 37.4183 3.58172 41 8 41H40C44.4183 41 48 37.4183 48 33V19.6452C48 15.2269 44.4183 11.6452 40 11.6452H33.5L31.5271 7.19015C31.2066 6.46659 30.4897 6 29.6984 6H18.3016Z"/>
</mask>
<path d="M16.4729 7.19015L19.216 8.40493L19.216 8.40492L16.4729 7.19015ZM14.5 11.6452V14.6452H16.4524L17.243 12.8599L14.5 11.6452ZM33.5 11.6452L30.757 12.8599L31.5476 14.6452H33.5V11.6452ZM31.5271 7.19015L34.2701 5.97537L34.2701 5.97537L31.5271 7.19015ZM19.216 8.40492C19.0558 8.76671 18.6973 9 18.3016 9V3C16.3233 3 14.531 4.16647 13.7299 5.97537L19.216 8.40492ZM17.243 12.8599L19.216 8.40493L13.7299 5.97537L11.7569 10.4304L17.243 12.8599ZM8 14.6452H14.5V8.64517H8V14.6452ZM3 19.6452C3 16.8837 5.23857 14.6452 8 14.6452V8.64517C1.92487 8.64517 -3 13.57 -3 19.6452H3ZM3 33V19.6452H-3V33H3ZM8 38C5.23858 38 3 35.7614 3 33H-3C-3 39.0751 1.92487 44 8 44V38ZM40 38H8V44H40V38ZM45 33C45 35.7614 42.7614 38 40 38V44C46.0751 44 51 39.0751 51 33H45ZM45 19.6452V33H51V19.6452H45ZM40 14.6452C42.7614 14.6452 45 16.8837 45 19.6452H51C51 13.57 46.0751 8.64517 40 8.64517V14.6452ZM33.5 14.6452H40V8.64517H33.5V14.6452ZM28.784 8.40493L30.757 12.8599L36.2431 10.4304L34.2701 5.97537L28.784 8.40493ZM29.6984 9C29.3027 9 28.9442 8.76671 28.784 8.40493L34.2701 5.97537C33.469 4.16647 31.6767 3 29.6984 3V9ZM18.3016 9H29.6984V3H18.3016V9Z" fill="#152C5B" mask="url(#path-2-inside-1)"/>
<path d="M34 19L40 19" stroke="#152C5B" stroke-width="3" stroke-linecap="round" stroke-linejoin="round"/>
</svg>
