<svg width="48" height="48" viewBox="0 0 48 48" fill="none" xmlns="http://www.w3.org/2000/svg">
<path d="M10.2482 28.2728L5.02457 45" stroke="#152C5B" stroke-width="3" stroke-linecap="round" stroke-linejoin="round"/>
<path d="M37.7518 28.2728L42.9754 45" stroke="#152C5B" stroke-width="3" stroke-linecap="round" stroke-linejoin="round"/>
<path d="M25.4 8.52C25.4 10.6187 27.1013 12.32 29.2 12.32C31.2987 12.32 33 10.6187 33 8.52V7H25.4V8.52Z" fill="#FF498B"/>
<path d="M29.2 15.7625V12.32" stroke="#FF498B" stroke-linecap="round" stroke-linejoin="round"/>
<path d="M27.68 16.12H30.72" stroke="#FF498B" stroke-linecap="round" stroke-linejoin="round"/>
<path d="M14 8.52C14 10.6187 15.7013 12.32 17.8 12.32C19.8987 12.32 21.6 10.6187 21.6 8.52V7H14V8.52Z" fill="#FF498B"/>
<path d="M17.8 15.7625V12.32" stroke="#FF498B" stroke-linecap="round" stroke-linejoin="round"/>
<path d="M16.28 16.12H19.32" stroke="#FF498B" stroke-linecap="round" stroke-linejoin="round"/>
<rect x="1.5" y="17.5" width="45" height="10" rx="2.5" stroke="#152C5B" stroke-width="3"/>
</svg>
