<svg width="34" height="33" viewBox="0 0 34 33" fill="none" xmlns="http://www.w3.org/2000/svg">
<path d="M16.0446 1.09181C16.335 0.15213 17.665 0.152134 17.9554 1.09181L21.0314 11.046C21.1609 11.465 21.5483 11.7508 21.9869 11.7508H32.0437C33.0002 11.7508 33.4109 12.9648 32.6508 13.5454L24.4297 19.8258C24.0967 20.0802 23.9576 20.5153 24.0813 20.9157L27.2009 31.0108C27.4884 31.941 26.4121 32.6918 25.6384 32.1007L17.6071 25.9653C17.2487 25.6915 16.7513 25.6915 16.3929 25.9653L8.36158 32.1007C7.58789 32.6918 6.51164 31.941 6.7991 31.0108L9.91867 20.9157C10.0424 20.5153 9.90334 20.0802 9.57031 19.8258L1.34923 13.5454C0.589121 12.9648 0.999762 11.7508 1.9563 11.7508H12.0131C12.4517 11.7508 12.8391 11.465 12.9686 11.046L16.0446 1.09181Z" fill="#FAD721"/>
</svg>
