<svg width="48" height="48" viewBox="0 0 48 48" fill="none" xmlns="http://www.w3.org/2000/svg">
<path d="M43 24V8.09581C43 6.78323 42.356 5.55418 41.2768 4.80704L39.3682 3.48568C37.7247 2.34785 35.4935 2.59801 34.1427 4.07155L31 7.5" stroke="#FF498B" stroke-width="3" stroke-linecap="round" stroke-linejoin="round"/>
<mask id="path-2-inside-1" fill="white">
<ellipse cx="31.0708" cy="7.70573" rx="4.14197" ry="2.93481" transform="rotate(32.6518 31.0708 7.70573)"/>
</mask>
<path d="M32.0323 8.32186C32.2593 7.96761 32.5136 8.02543 32.2775 8.03643C32.0501 8.04703 31.6077 7.97233 31.106 7.65084L27.8688 12.7026C29.2931 13.6153 30.9489 14.1049 32.5568 14.0299C34.1559 13.9554 35.9826 13.278 37.0841 11.559L32.0323 8.32186ZM31.106 7.65084C30.6043 7.32934 30.3516 6.9586 30.2662 6.74759C30.1775 6.52844 30.3363 6.73535 30.1093 7.0896L25.0575 3.85241C23.956 5.57135 24.1038 7.51403 24.7042 8.99801C25.3079 10.4901 26.4445 11.7899 27.8688 12.7026L31.106 7.65084ZM30.1093 7.0896C29.8823 7.44384 29.628 7.38603 29.8641 7.37502C30.0915 7.36443 30.5339 7.43913 31.0356 7.76062L34.2728 2.70883C32.8485 1.79612 31.1928 1.30661 29.5849 1.38153C27.9857 1.45604 26.159 2.13347 25.0575 3.85241L30.1093 7.0896ZM31.0356 7.76062C31.5373 8.08211 31.7901 8.45286 31.8754 8.66386C31.9641 8.88302 31.8053 8.6761 32.0323 8.32186L37.0841 11.559C38.1856 9.84011 38.0378 7.89743 37.4374 6.41344C36.8337 4.92131 35.6972 3.62154 34.2728 2.70883L31.0356 7.76062Z" fill="#FF498B" mask="url(#path-2-inside-1)"/>
<path d="M4.5 31.5H43.5V35C43.5 38.5899 40.5899 41.5 37 41.5H11C7.41015 41.5 4.5 38.5899 4.5 35V31.5Z" stroke="#152C5B" stroke-width="3"/>
<path d="M9 42V46" stroke="#152C5B" stroke-width="3" stroke-linecap="round" stroke-linejoin="round"/>
<path d="M39 42V46" stroke="#152C5B" stroke-width="3" stroke-linecap="round" stroke-linejoin="round"/>
<rect x="1.5" y="24.5" width="45" height="7" rx="2.5" stroke="#152C5B" stroke-width="3"/>
</svg>
